PathFileType	4	(X/Y/Z)	7_coords_data.trc
DataRate	CameraRate	NumFrames	NumMarkers	Units	OrigDataRate	OrigDataStartFrame	OrigNumFrames
30.0	30.0	7	21	m	30.0	29	47
Frame#	Time	THUMB_TIP	THUMB_IP	THUMB_MCP	THUMB_CMC	INDEX_TIP	INDEX_DIP	INDEX_PIP	INDEX_MCP	MIDDLE_TIP	MIDDLE_DIP	MIDDLE_PIP	MIDDLE_MCP	RING_TIP	RING_DIP	RING_PIP	RING_MCP	PINKY_TIP	PINKY_DIP	PINKY_PIP	PINKY_MCP	WRIST
X1	Y1	Z1	X2	Y2	Z2	X3	Y3	Z3	X4	Y4	Z4	X5	Y5	Z5	X6	Y6	Z6	X7	Y7	Z7	X8	Y8	Z8	X9	Y9	Z9	X10	Y10	Z10	X11	Y11	Z11	X12	Y12	Z12	X13	Y13	Z13	X14	Y14	Z14	X15	Y15	Z15	X16	Y16	Z16	X17	Y17	Z17	X18	Y18	Z18	X19	Y19	Z19	X20	Y20	Z20	X21	Y21	Z21
27	0.9333333333333294	0.5379611834736864	-0.0012930325114257624	-0.1124651331093259	0.5197255801509837	-0.008026598727618905	-0.12471755562363618	0.4910083986479463	-0.01634372016669594	-0.1160590928565364	0.4793236675110212	-0.02770461206444408	-0.07453455560992209	0.49595639156164384	8.531434771197333e-06	-0.11443652276753655	0.513008293986057	-0.00024174764287487882	-0.12053324189273748	0.5267325425277668	0.020420458863440794	-0.12462323666727484	0.4904206067644473	0.03445623721481139	-0.10735834914398773	0.49814971439899125	-0.01288329710682723	-0.10034661525786065	0.5159368620393641	-0.009576566875276304	-0.0995202291523839	0.5365852844201696	0.010851358462641736	-0.1019185764108739	0.5045242116128481	0.037732462601461125	-0.08624561333041011	0.5053568973708571	-0.0026357001549596193	-0.08889719867631424	0.5182179232797894	-0.012155363286468268	-0.08059237920612913	0.5393685229221955	0.0009750360947587966	-0.08124408915398085	0.5180697732492928	0.03236820028106713	-0.06726005044041442	0.5057361970861293	-0.020868328342488085	-0.05764912721244375	0.5203669121774731	-0.026873603871711116	-0.06419732098890121	0.5380725017173881	-0.01561539008754298	-0.06343788670338113	0.5255780300885232	0.014948850309988937	-0.04892586277019498	0.4622830810018608	-0.023011742144276925	-0.05198982011943096
28	0.9666666666666625	0.5378297369512632	-0.0006831181514597162	-0.11280904384131427	0.519439644760927	-0.007256022957666031	-0.12491695165560993	0.4908072594276507	-0.01574604190626816	-0.11614619978480864	0.4792545802898962	-0.02736150448148733	-0.07465515696947589	0.4957118628669641	0.0005685436771971641	-0.11430619748026075	0.5127318717815159	0.00040493421043519273	-0.12049429318822832	0.5262707185728462	0.021164768663328948	-0.12470603084023449	0.4900324673164296	0.03492303616044912	-0.10706700265400759	0.4981412332596612	-0.012288982529441994	-0.10013029741673296	0.5159167381832814	-0.008867293470050996	-0.09956155433660152	0.5363559361459429	0.011757923110894852	-0.10206138985763336	0.5041117899042591	0.03816995245461363	-0.08597202504445792	0.5035712848507675	-0.0033458790234860425	-0.08715620481882874	0.5183112113040973	-0.011416033980615303	-0.08062878824576178	0.5393287023278697	0.0019238136892374413	-0.08133129391177565	0.5176335786758203	0.03287881742804666	-0.06698451074436823	0.505717638919357	-0.020322195335838678	-0.05775635172840285	0.5205067203796298	-0.02591769581254999	-0.06431176506217018	0.5381042044981719	-0.014491339365709344	-0.06355087739148202	0.525116752672175	0.015686258875105108	-0.04866725852766374	0.4622830810018609	-0.023011742144276925	-0.051989820119430985
29	0.9999999999999956	0.5377824600589253	-4.2573896617326135e-05	-0.11326361596463869	0.5191686275884995	-0.006419776872426675	-0.12513191504109653	0.49062866649465553	-0.015070773508789714	-0.11621839284392238	0.47916904346482136	-0.02698821303978194	-0.07478722492604639	0.49547079365948454	0.001174026342462775	-0.1141678907934488	0.5124453262734465	0.0011844356365691144	-0.12048177503249974	0.5257728813038364	0.02206335229554468	-0.1247779301809413	0.4895999607563639	0.035450874260011256	-0.10672439399776745	0.4981594242318187	-0.011507533585460084	-0.09994007945985908	0.5159298122821782	-0.008026122608098873	-0.09963497923640288	0.5361204648108794	0.012833670794688556	-0.10220716112310654	0.5036420396584856	0.03866430518283226	-0.08565185539574496	0.5023635373592953	-0.004081777582679802	-0.08546715833034943	0.5184866380564065	-0.010585871657978085	-0.0806982607459509	0.5393303770622214	0.003021658116687642	-0.08144234184977306	0.5171541771113545	0.0334317609059096	-0.06667201219576291	0.50575478734613	-0.01968667747202557	-0.05790932732669887	0.5206838586790091	-0.02491628969549531	-0.06444950967354057	0.5381475744854688	-0.013286870568403053	-0.063683180763977	0.5246227303426574	0.016454195731320786	-0.04840473132471479	0.4622830810018608	-0.023011742144276925	-0.051989820119430985
30	1.0333333333333288	0.537777434662901	0.0006122310855023461	-0.11386406404966598	0.5188538145067351	-0.005526401526764091	-0.12536248958696344	0.4904177267582216	-0.014364124122731914	-0.1163013873981806	0.4790674909580599	-0.026585008033315316	-0.07492854432781901	0.4951637692716544	0.001913988185035409	-0.11404336716682303	0.5120902713494851	0.002074067627034437	-0.12048292475888184	0.525193184640198	0.023079216834411276	-0.12485410344110223	0.4890947973184685	0.03603703348340448	-0.10634363304023259	0.49803482807858257	-0.010414276997224192	-0.09982196936518326	0.5158349124319714	-0.007076755951705427	-0.09968799069912354	0.5358107513341042	0.013979122206225658	-0.10233853878478613	0.5031074969524585	0.03920717003387231	-0.08530355487944172	0.5014279084154234	-0.004692067683967904	-0.08339479266679115	0.5185575222063588	-0.009631160074417666	-0.08071492369014346	0.5392547344163966	0.004192858751270623	-0.08155271199256858	0.5166120726004259	0.03403748249628025	-0.06634320399900115	0.5057037399141279	-0.019001060568283545	-0.058011152872063015	0.5207739401298986	-0.02383221152872117	-0.06453411583792762	0.538131309513517	-0.012042577061525672	-0.06380044955783426	0.5240900178793058	0.0172593014075606	-0.048143965328419025	0.462283081001861	-0.023011742144276925	-0.05198982011943101
31	1.0666666666666622	0.5378704548296589	0.0013449705819257307	-0.11463760189116362	0.5185518486075826	-0.00458003561189102	-0.12557770039344363	0.49022866010526245	-0.01361769388886791	-0.1163615338405529	0.4789700517257355	-0.026163654523582824	-0.07506101799500156	0.494710923034854	0.0028365311516570513	-0.11383288253442578	0.511586918538177	0.003092084622878466	-0.12040064228910397	0.524510222056682	0.024177613524992814	-0.12491711548028916	0.48847916701087546	0.03666445629260562	-0.10595721242191422	0.4977011128504435	-0.008994559329775553	-0.09945213943629105	0.5155636557864743	-0.006014313099443114	-0.09967052502429102	0.5353760350015075	0.015174976593128497	-0.1024800057884174	0.5024743823527483	0.03980220834670911	-0.08495492005008681	0.5007899948581183	-0.004956549833102675	-0.0812465605410792	0.5184436295801317	-0.008566092939246928	-0.0806805396345692	0.5390349001575836	0.005403966087563661	-0.08168900668588694	0.5159789691096716	0.03470576001153647	-0.06605092015488948	0.5056328926063738	-0.01811634202464396	-0.058103550065288445	0.5208224579331618	-0.02257634984930701	-0.06461395983635371	0.538089408409552	-0.01064975967542836	-0.06396520173796066	0.5234814629380342	0.018155819771815462	-0.047911231113542285	0.4622830810018609	-0.023011742144276925	-0.051989820119430985
32	1.0999999999999952	0.5378781110265867	0.0021224480981170135	-0.11578587765032688	0.5180827361541953	-0.0036415983290830622	-0.12593077303897326	0.48991350939389133	-0.012892610804432603	-0.11645799984906166	0.4788450280855896	-0.0257536685703752	-0.0752030375454931	0.4943242102852776	0.003847009884773378	-0.11361993037922918	0.5111258649781563	0.004294641834422963	-0.12036559752332415	0.523793325134333	0.025500602214415302	-0.12504026655480338	0.48779233811391265	0.03729368582870396	-0.10558549319652608	0.4973635768363084	-0.00714420030397811	-0.09864691690941163	0.5152917696552062	-0.0048235725218211956	-0.09973988943656314	0.5349071023789106	0.016522773132097046	-0.10273685446168676	0.5017753267784644	0.04041117701305208	-0.08463222724702013	0.5005075729869296	-0.004763150536481686	-0.0792294556709868	0.5182945770120676	-0.007309068066518987	-0.08069260014094665	0.5387763721530437	0.00680341555640096	-0.08192298739539489	0.5152379127167172	0.035447798112196005	-0.06579347688324128	0.505733594134686	-0.01693763080648969	-0.05828994087262879	0.5209765952914542	-0.021136468018875698	-0.0648489561797187	0.5381156819223984	-0.0090248279525863	-0.0642391173800024	0.5227940373341337	0.019141011160160204	-0.0477219697695406	0.4622830810018609	-0.023011742144276925	-0.051989820119430985
33	1.1333333333333284	0.5378138814529411	0.0029993786154148827	-0.11754480862543384	0.5174427384523492	-0.002695313664574095	-0.1265218355656671	0.4895067658465647	-0.01216904854607248	-0.11658957590514982	0.4786394292563303	-0.0253739765773624	-0.0753898080523693	0.4943975436402126	0.004569629604865066	-0.11344793089357694	0.51110266067368	0.005508431237444378	-0.12038029819434959	0.5232831215575695	0.026996270660544552	-0.12506206736669273	0.487225895531325	0.037880990467417774	-0.10518656938505255	0.4974199081366676	-0.0053787596115475456	-0.09786623947450146	0.5153312799555193	-0.0036592848276034706	-0.0999220035743498	0.5345723649921738	0.0180167276350085	-0.10297825623617696	0.5011367917203364	0.04099263644618367	-0.08426147298466258	0.5006663500719736	-0.003977992292571231	-0.0783770331939046	0.5184079985609222	-0.006028188555152858	-0.08083276204283801	0.5386340678188575	0.008447428303385296	-0.08207478375682523	0.5144354518232966	0.03624447009425824	-0.06544732798103495	0.5060010879378206	-0.015867615600608675	-0.05879802736090001	0.5213938363275499	-0.019613347311671636	-0.06528129744313638	0.5382737565535729	-0.007151941163556663	-0.06451079827063899	0.5220392830218797	0.020178776832002088	-0.04747092814214332	0.4622830810018609	-0.023011742144276925	-0.051989820119430985
